# xmcd CD database file
#
# Track frame offsets:
#	150
#	18139
#	37766
#	54959
#	75276
#	96287
#	123755
#	140503
#	155506
#	176990
#	191886
#	214689
#
# Disc length: 3066 seconds
#
# Revision: 1
# Processed by: cddbd v1.5.2PL0 Copyright (c) Steve Scherf et al.
# Submitted via: CDex 1.51
#
DISCID=930bf80c
DTITLE=Tschuldigungk - Star in deiner Welt
DYEAR=2010
DGENRE=Rock
TTITLE0=01 Gib mir Zeit
TTITLE1=02 Flucht nach vorn
TTITLE2=03 Star in deiner Welt
TTITLE3=04 Was zählt
TTITLE4=05 Ich will kein König sein
TTITLE5=06 Sag mir
TTITLE6=07 Kein Grund
TTITLE7=08 Talent
TTITLE8=09 Hörst du mich
TTITLE9=10 Das Leben ist kostbar
TTITLE10=11 Wie ein Magnet
TTITLE11=12 Festival
EXTD=YEAR: 2010
EXTT0=
EXTT1=
EXTT2=
EXTT3=
EXTT4=
EXTT5=
EXTT6=
EXTT7=
EXTT8=
EXTT9=
EXTT10=
EXTT11=
PLAYORDER=
